<svg xmlns="http://www.w3.org/2000/svg" xmlns:xlink="http://www.w3.org/1999/xlink" xmlns:inkscape="http://www.inkscape.org/namespaces/inkscape" version="1.1" width="7588" height="8597" viewBox="0 0 7588 8597">
<defs>
<clipPath id="clip_0">
<path d="M0 .051H7587.012V8596.527H0Z"/>
</clipPath>
<clipPath id="clip_1">
<path transform="matrix(.480008,0,0,.480009,0,.05)" d="M0 0H15806V17909H0Z"/>
</clipPath>
</defs>
<g>
<g clip-path="url(#clip_0)">
<g clip-path="url(#clip_1)">
<path transform="matrix(.480008,0,0,.480009,0,.05)" d="M0 0H15806V17909H0Z" fill="#ffffff"/>
<path transform="matrix(.480008,0,0,.480009,0,.05)" d="M0 0H15806V17909H0Z" fill="#ffffff"/>
<path transform="matrix(.480008,0,0,.480009,0,.05)" d="M0 0H15806V17909H0Z" fill="#1e1e1e"/>
<path transform="matrix(.480008,0,0,.480009,0,.05)" d="M12186.719 5332.18 10844.676 5251.625 9393.324 5164.441 9158.676 5150.266 7477.578 5049.703 8970 2789.598C9506.078 2919.312 10029.301 3142.562 10516.09 3464 11078.93 3835.648 11539.883 4303.355 11891.918 4831.352L11893.906 4831.48C12001.094 4991.934 12098.875 5159.145 12186.719 5332.18" fill="#ffffff"/>
<path transform="matrix(.480008,0,0,.480009,0,.05)" d="M12714.848 7548.559C12714.848 7556.379 12714.848 7564.062 12714.715 7571.746 12714.715 7587.914 12714.582 7604.078 12714.316 7620.242 12714.051 7640.383 12713.652 7660.387 12713.125 7680.395 12713.125 7681.32 12713.125 7682.379 12712.992 7683.309 12712.859 7687.68 12712.859 7691.922 12712.727 7696.164 12712.461 7705.035 12712.199 7713.918 12711.801 7722.793 12711.668 7724.645 12711.668 7726.637 12711.535 7728.488 12711.402 7732.598 12711.27 7736.836 12711.137 7740.945 12710.473 7758.566 12709.68 7776.055 12708.754 7793.543 12708.617 7797.781 12708.352 7802.023 12708.223 7806.266 12708.09 7808.117 12707.957 7809.973 12707.824 7811.832 12707.031 7826.402 12706.234 7840.844 12705.305 7855.285 12705.043 7860.453 12704.777 7865.621 12704.379 7870.789 12703.32 7888.676 12701.996 7906.43 12700.668 7924.184 12700.535 7925.512 12700.535 7926.836 12700.273 7928.16 12699.609 7936.902 12699.082 7945.648 12698.285 7954.395 12697.621 7963.27 12696.828 7972.016 12696.035 7980.762 12695.371 7990.035 12694.441 7999.441 12693.516 8008.715 12693.383 8010.438 12693.25 8012.16 12692.984 8013.887 12692.059 8024.75 12690.996 8035.613 12689.805 8046.477 12687.949 8064.363 12686.098 8082.383 12684.109 8100.273 12682.121 8118.156 12680 8136.18 12677.746 8153.93 12676.688 8163.34 12675.496 8172.613 12674.305 8181.891 12672.051 8199.246 12669.668 8216.605 12667.281 8233.961 12666.887 8236.609 12666.617 8239.262 12666.219 8241.906 12665.426 8246.945 12664.762 8251.98 12663.969 8257.016 12663.703 8258.602 12663.441 8260.191 12663.172 8261.785 12660.922 8278.078 12658.402 8294.242 12655.887 8310.539 12652.707 8331.078 12649.262 8351.613 12645.816 8372.02 12645.684 8372.949 12645.418 8374.004 12645.285 8374.934V8375.332C12644.891 8377.852 12644.359 8380.367 12643.961 8382.883 12640.25 8404.48 12636.41 8425.945 12632.434 8447.543 12628.195 8470.332 12623.691 8493.117 12619.184 8515.906 12536.641 8925.715 12400.434 9329.691 12208.32 9717.508L12209.379 9719.629C12123.258 9893.594 12027.328 10061.73 11921.863 10223.242L11296.219 8971.691 10671.371 7722.527 10566.172 7511.859 9812.406 6003.27 12514.777 6165.578C12553.867 6298.203 12587.254 6432.684 12614.945 6568.094 12672.844 6851.238 12705.969 7139.551 12713.258 7429.316 12713.789 7449.984 12714.184 7470.652 12714.449 7491.457 12714.715 7510.402 12714.848 7529.48 12714.848 7548.559" fill="#ffffff"/>
<path transform="matrix(.480008,0,0,.480009,0,.05)" d="M8083.211 2654.852 8079.898 2659.754 7309.309 3826.77 6538.715 4993.656 6410.328 5188.16 5481.801 6594.461 4271.59 4173.641C4975.27 3432.332 5877.035 2949.254 6837.094 2752.898 7055.312 2708.246 7276.715 2678.301 7499.305 2663.594L7503.148 2657.633C7607.289 2651.008 7712.492 2647.695 7818.352 2647.695 7907.258 2647.695 7995.5 2650.078 8083.211 2654.852" fill="#ffffff"/>
<path transform="matrix(.480008,0,0,.480009,0,.05)" d="M8159.527 10049.012 6666.969 12309.379C6130.762 12179.664 5607.539 11956.41 5120.617 11634.848 4557.512 11263.066 4096.297 10794.957 3744.258 10266.699H3743.461C3636.41 10106.25 3538.629 9939.039 3450.781 9766L4847.547 9849.867 6243.117 9933.605 7073.07 9983.559ZM8159.527 10049.012" fill="#ffffff"/>
<path transform="matrix(.480008,0,0,.480009,0,.05)" d="M5824.832 9096.371 3122.195 8934.062C3083.105 8801.039 3049.586 8666.555 3021.762 8530.75 2972.207 8288.148 2940.805 8041.84 2928.219 7794.074 2927.293 7773.406 2926.367 7752.738 2925.57 7732.066 2924.773 7712.988 2924.246 7693.641 2923.715 7674.43 2923.055 7652.305 2922.656 7630.18 2922.391 7608.051 2922.125 7588.309 2921.992 7568.434 2921.992 7548.559 2921.992 7543.793 2921.992 7538.891 2922.125 7534.121 2921.992 7515.832 2922.258 7497.418 2922.523 7479 2922.523 7475.027 2922.656 7471.184 2922.789 7467.211 2922.789 7464.293 2922.789 7461.512 2922.922 7458.598 2923.055 7443.094 2923.453 7427.594 2923.848 7412.09 2923.98 7406.129 2924.246 7400.297 2924.508 7394.336 2924.508 7391.289 2924.641 7388.375 2924.773 7385.324 2924.906 7375.523 2925.305 7365.719 2925.836 7355.914 2925.836 7353.262 2925.969 7350.746 2926.102 7348.098 2926.367 7340.145 2926.633 7332.195 2927.16 7324.246 2927.293 7322.258 2927.293 7320.141 2927.426 7318.152 2927.82 7305.961 2928.484 7293.773 2929.281 7281.449 2929.414 7279.066 2929.547 7276.547 2929.68 7274.164 2929.68 7271.379 2929.812 7268.598 2930.074 7265.816 2931.133 7246.473 2932.328 7227.125 2933.785 7207.781 2933.918 7206.59 2933.918 7205.266 2934.051 7204.07 2934.051 7202.352 2934.184 7200.496 2934.445 7198.773 2934.711 7194.664 2934.977 7190.559 2935.375 7186.32 2936.57 7168.434 2937.891 7150.543 2939.484 7132.527 2941.469 7109.605 2943.457 7086.684 2945.844 7063.762 2948.094 7040.707 2950.48 7017.785 2953.129 6994.863 2955.645 6971.941 2958.43 6949.02 2961.344 6926.098 3028.785 6399.031 3183.008 5876.871 3428.52 5381.336L3427.066 5378.422V5378.289C3512.922 5204.32 3608.98 5036.188 3714.316 4874.676L4338.367 6122.914 4965.469 7376.316 5337.781 8121.34ZM5824.832 9096.371" fill="#ffffff"/>
<path transform="matrix(.480008,0,0,.480009,0,.05)" d="M11365.281 10925.262 10155.047 8504.629 9409.43 9633.77 9226.535 9910.75 9098.191 10105.145 7723.133 12187.516 7723.039 12187.352 6341.305 14279.836 7661.871 16533.403 8969.723 14552.777 8969.828 14552.953ZM11365.281 10925.262" fill="#ffffff"/>
</g>
</g>
</g>
</svg>
