<svg version="1.1" id="Layer_1" xmlns="http://www.w3.org/2000/svg" xmlns:xlink="http://www.w3.org/1999/xlink" x="0px" y="0px"
	 width="100%" viewBox="0 0 1165 1165" enable-background="new 0 0 1165 1165" xml:space="preserve">
<path fill="#000000" opacity="1.000000" stroke="none" 
	d="
M731.000000,1166.000000 
	C487.333344,1166.000000 244.166672,1166.000000 1.000000,1166.000000 
	C1.000000,777.666687 1.000000,389.333344 1.000000,1.000000 
	C389.333344,1.000000 777.666687,1.000000 1166.000000,1.000000 
	C1166.000000,389.333344 1166.000000,777.666687 1166.000000,1166.000000 
	C1021.166687,1166.000000 876.333313,1166.000000 731.000000,1166.000000 
M979.500000,586.111206 
	C659.719543,586.111206 339.939026,586.111206 20.166059,586.111206 
	C17.832087,728.182678 81.811783,930.921265 278.419586,1058.678833 
	C461.974030,1177.954346 701.563660,1178.811768 886.951172,1060.244995 
	C1082.608276,935.110291 1150.040161,732.976074 1147.869263,586.563904 
	C1147.577271,586.427124 1147.285278,586.170593 1146.993164,586.170471 
	C1091.495483,586.138794 1035.997681,586.125305 979.500000,586.111206 
M851.122742,380.625885 
	C843.158997,404.209259 841.186096,428.436432 844.043091,453.020782 
	C850.451294,508.162354 889.096191,545.214844 944.610168,550.753418 
	C961.117004,552.400269 977.868713,551.727966 994.510193,551.855957 
	C1014.782532,552.011841 1024.645264,542.591248 1025.684570,522.492371 
	C1026.626343,504.279572 1016.834167,492.832245 998.562561,491.852081 
	C986.769165,491.219391 974.913635,491.845123 963.090759,491.635406 
	C951.239868,491.425201 939.452209,490.447449 928.575134,485.100250 
	C917.791382,479.798920 909.439087,472.190613 905.355652,459.616394 
	C959.312317,459.616394 1012.656738,459.616394 1066.214111,459.616394 
	C1066.470825,436.247040 1067.183350,413.427338 1061.656372,391.044800 
	C1053.323975,357.301300 1034.770142,331.974243 1001.276611,319.582794 
	C982.402466,312.600006 962.740967,311.157990 942.777466,312.958740 
	C898.862671,316.919983 867.640930,338.175873 851.122742,380.625885 
M575.285767,490.796600 
	C587.871582,467.288910 591.385803,442.096100 588.980347,415.874359 
	C585.433960,377.214722 567.835876,346.917786 534.236694,326.942444 
	C505.698395,309.975922 474.704834,306.800018 442.693909,313.944214 
	C409.710144,321.305542 385.443787,340.421112 370.205322,370.634613 
	C359.127655,392.598419 355.855255,416.152496 357.125336,440.458893 
	C358.395416,464.765442 365.375946,487.305206 379.943604,506.937073 
	C404.658173,540.243225 438.898468,553.386780 479.311127,551.190186 
	C521.899963,548.875366 554.093262,529.008484 575.285767,490.796600 
M246.363663,315.061554 
	C211.575150,315.061554 176.786621,315.061554 141.678619,315.061554 
	C141.678619,327.080505 141.678619,338.709534 141.678619,350.338562 
	C141.678619,406.667145 141.662201,462.995697 141.687607,519.324280 
	C141.696396,538.805420 149.602676,548.520813 167.961075,550.409546 
	C188.118057,552.483337 203.251434,544.149048 203.090637,519.949341 
	C202.783936,473.788605 203.001663,427.624420 203.001663,381.461639 
	C203.001663,379.700897 203.001663,377.940155 203.001663,376.007202 
	C217.754913,376.007202 231.913513,375.660034 246.047607,376.099731 
	C261.823792,376.590546 269.979279,383.761475 271.821503,397.824097 
	C272.165863,400.452667 272.096161,403.144714 272.097229,405.807526 
	C272.112854,444.304291 272.092682,482.801025 272.114746,521.297791 
	C272.124847,538.909119 280.839874,548.999695 298.143341,550.472656 
	C309.351685,551.426819 320.269562,550.172058 327.963501,540.318604 
	C332.615143,534.361389 333.631866,527.232300 333.647766,520.009094 
	C333.734802,480.512573 333.839081,441.015015 333.625763,401.519501 
	C333.519897,381.929749 328.730438,363.536194 316.320190,347.932373 
	C298.739838,325.828064 274.662872,316.926941 246.363663,315.061554 
M760.136780,357.556305 
	C745.932800,401.283417 731.728821,445.010529 717.524841,488.737640 
	C706.575378,458.364929 696.756592,428.223572 686.946960,398.079254 
	C679.954895,376.593109 672.985901,355.099518 665.985413,333.616150 
	C662.674133,323.454468 656.473816,315.837616 645.696106,313.592590 
	C632.815674,310.909546 621.066406,313.884094 611.982361,323.786591 
	C603.354797,333.191589 603.518372,344.158813 607.670166,355.561890 
	C615.853271,378.036926 623.920715,400.554047 632.043091,423.051178 
	C642.362427,451.633636 652.200989,480.401825 663.140808,508.744873 
	C675.668030,541.200806 702.172363,553.900940 733.201477,545.869080 
	C753.333313,540.658020 764.791382,525.594788 771.600586,506.998322 
	C789.815247,457.252716 807.650940,407.368134 825.536377,357.502594 
	C827.040955,353.307922 828.489563,348.886505 828.765808,344.495056 
	C829.763672,328.629028 819.560730,316.489777 803.162537,313.331268 
	C786.541565,310.129791 773.421265,317.504395 768.134644,333.113342 
	C765.469421,340.982513 762.951477,348.901581 760.136780,357.556305 
z"/>
<path fill="#FEFEFE" opacity="1.000000" stroke="none" 
	d="
M980.000000,586.111206 
	C1035.997681,586.125305 1091.495483,586.138794 1146.993164,586.170471 
	C1147.285278,586.170593 1147.577271,586.427124 1147.867188,586.568237 
	C1150.040161,732.976074 1082.608276,935.110291 886.951172,1060.244995 
	C701.563660,1178.811768 461.974030,1177.954346 278.419586,1058.678833 
	C81.811783,930.921265 17.832087,728.182678 20.166059,586.111206 
	C339.939026,586.111206 659.719543,586.111206 980.000000,586.111206 
M609.000305,822.500000 
	C609.000305,832.330261 608.876404,842.162659 609.042297,851.990112 
	C609.160339,858.980835 610.455200,865.875427 616.488586,870.272705 
	C625.679993,876.971680 636.013367,876.687805 645.974060,872.662659 
	C654.803955,869.094482 657.285278,861.034912 657.295593,852.166443 
	C657.336487,817.177063 657.537537,782.185852 657.252319,747.198792 
	C656.933716,708.114746 628.607910,678.398010 589.475342,677.010803 
	C562.353577,676.049377 535.172058,676.776123 508.017212,676.769958 
	C507.750885,676.769897 507.484497,677.062439 506.673553,677.537109 
	C506.673553,681.200623 506.673553,685.201416 506.673553,690.247925 
	C497.476410,679.010864 486.151215,676.363220 473.344879,676.587646 
	C452.357697,676.955444 431.359344,676.687317 410.365723,676.687317 
	C408.591400,676.687317 406.817078,676.687256 404.687836,676.687256 
	C404.687836,678.185913 404.687866,679.149048 404.687866,680.112122 
	C404.687714,737.094849 404.685059,794.077515 404.698608,851.060242 
	C404.699036,852.888733 404.764648,854.728760 404.971771,856.543762 
	C406.001373,865.564758 411.255554,872.139832 419.677155,873.996033 
	C435.546570,877.494019 453.530884,874.709656 452.690033,848.823425 
	C452.657593,847.824768 452.685883,846.824158 452.685883,845.824463 
	C452.685883,807.502747 452.685883,769.181091 452.685883,730.859375 
	C452.685883,729.112427 452.685913,727.365540 452.685913,725.364563 
	C463.736481,725.364563 474.071289,724.869995 484.340240,725.481628 
	C499.384491,726.377625 506.777924,734.692139 506.869476,749.822266 
	C506.954163,763.817444 506.887329,777.813660 506.887604,791.809387 
	C506.888031,812.136536 506.792389,832.464355 506.924530,852.790649 
	C507.007812,865.596619 513.508728,873.501221 525.397766,874.806213 
	C530.104492,875.322815 535.088928,874.902161 539.744690,873.934998 
	C547.678223,872.286682 552.374878,866.848938 553.984985,858.992859 
	C554.681213,855.595764 554.952637,852.056580 554.958374,848.581238 
	C555.023682,809.426575 554.999695,770.271790 554.999695,731.117004 
	C554.999695,729.329285 554.999695,727.541504 554.999695,725.312744 
	C564.733643,725.312744 574.023621,725.304993 583.313599,725.314331 
	C600.785339,725.331909 608.966736,733.490234 608.991943,751.021362 
	C609.025757,774.514160 609.000305,798.007141 609.000305,822.500000 
M778.511719,876.114319 
	C788.841736,876.111450 799.174316,876.249634 809.501160,876.067383 
	C820.521545,875.872986 828.232971,869.682739 829.774963,859.121521 
	C832.394287,841.181885 827.185547,827.450623 804.474487,828.272156 
	C797.485779,828.525024 790.478699,828.401733 783.482544,828.290771 
	C772.321594,828.113708 761.132996,827.795776 750.793213,822.847290 
	C739.802795,817.587463 731.953857,809.551636 728.738770,796.828857 
	C774.257324,796.828857 819.315918,796.828857 864.600952,796.828857 
	C864.888916,775.423157 865.266846,754.488403 859.114563,734.079041 
	C851.468506,708.714233 836.408569,689.913513 811.179688,680.396729 
	C794.991699,674.290405 778.064636,673.149963 761.009766,675.003357 
	C726.505615,678.752991 701.662842,695.905884 688.649170,728.652771 
	C680.597900,748.912476 679.423767,770.158264 681.301208,791.558716 
	C682.823547,808.911804 688.382324,825.110718 698.878906,839.186401 
	C718.456970,865.440308 745.735413,875.661621 778.511719,876.114319 
M1038.020752,706.336426 
	C1038.319702,698.975647 1035.578857,692.530457 1029.773193,688.500671 
	C1023.601440,684.216919 1016.792358,680.046326 1009.643860,678.127258 
	C988.999573,672.585266 967.862976,672.360657 946.750000,675.483337 
	C930.957336,677.819153 915.909973,682.379517 902.972961,692.208740 
	C877.699524,711.411072 873.997986,746.374695 894.885559,769.185669 
	C902.348816,777.336182 911.726074,782.942688 922.212891,785.970764 
	C936.715759,790.158447 951.541138,793.215393 966.131897,797.117554 
	C975.391541,799.593994 984.785583,802.007629 993.544373,805.783203 
	C1001.070740,809.027588 1001.396912,817.858826 994.722778,822.738953 
	C991.579346,825.037292 987.821411,826.936829 984.057678,827.866577 
	C970.036194,831.330139 955.868286,829.984375 941.971863,827.242310 
	C933.732849,825.616638 925.911621,821.978088 917.777954,819.687073 
	C908.283081,817.012817 898.893188,817.508911 891.940308,825.299805 
	C885.684937,832.309082 882.906128,840.936829 886.221436,850.312988 
	C889.175049,858.666260 896.116333,863.669922 903.996460,865.924133 
	C917.841858,869.884583 931.926086,873.841125 946.171875,875.385437 
	C970.306763,878.001770 994.264771,875.410339 1016.088989,863.809204 
	C1037.947144,852.190063 1049.611816,833.795654 1047.907959,808.441162 
	C1046.281982,784.245117 1031.948730,769.408325 1010.128052,761.923462 
	C996.058105,757.097290 981.208130,754.553406 966.721985,750.929626 
	C957.073853,748.515991 947.232056,746.624146 937.884888,743.338379 
	C930.249756,740.654297 928.889954,732.484436 934.750366,726.798950 
	C937.470947,724.159546 941.374268,721.715576 945.005493,721.252014 
	C952.524963,720.292236 960.350281,719.763855 967.816772,720.776489 
	C981.960266,722.694763 995.870422,726.309875 1010.005798,728.316772 
	C1024.993408,730.444763 1035.179688,722.307068 1038.020752,706.336426 
M219.351608,679.856628 
	C206.726349,679.856628 194.101105,679.856628 181.311462,679.856628 
	C183.574829,663.384766 190.446045,657.338196 205.631836,657.303223 
	C209.461853,657.294434 213.313431,657.370605 217.117065,657.008362 
	C226.755829,656.090393 233.291779,650.554504 234.943329,642.225464 
	C237.613541,628.759155 231.855087,618.640381 218.329895,616.192444 
	C208.985901,614.501282 199.079941,614.166321 189.628662,615.160461 
	C165.889236,617.657593 148.287872,629.159912 140.654526,652.869690 
	C137.964554,661.224915 136.036392,669.825439 133.707703,678.510376 
	C117.852531,683.049500 112.977890,687.660095 112.685913,698.641418 
	C112.309288,712.805786 115.859085,717.139282 132.999054,723.230713 
	C132.999054,724.961914 132.999054,726.779907 132.999054,728.597961 
	C132.999054,768.430176 132.975952,808.262451 133.039520,848.094543 
	C133.045059,851.570557 133.371155,855.089905 133.978607,858.512756 
	C135.705261,868.241821 142.649612,874.115112 153.140839,875.019287 
	C166.812836,876.197632 175.816147,872.010010 179.475800,862.661987 
	C180.196594,860.820740 180.784576,858.863708 181.019760,856.910278 
	C181.416809,853.612793 181.657944,850.275574 181.661453,846.954773 
	C181.702927,807.622559 181.688156,768.290344 181.688156,728.958130 
	C181.688156,727.165344 181.688156,725.372559 181.688156,723.114075 
	C183.745789,723.114075 185.370209,723.118286 186.994583,723.113464 
	C196.326965,723.085876 205.671600,723.346558 214.988617,722.953369 
	C226.575500,722.464417 233.891739,715.745117 235.083023,705.240356 
	C236.736191,690.662720 232.549011,683.554688 219.351608,679.856628 
M374.998871,675.500000 
	C374.998871,663.339905 375.000092,651.179749 374.998596,639.019653 
	C374.996552,622.519226 368.185608,615.193054 351.845917,614.111877 
	C338.728821,613.243958 329.460449,619.472656 327.237305,630.905090 
	C326.671661,633.813843 326.710266,636.867554 326.709137,639.854736 
	C326.682434,709.650391 326.686066,779.446045 326.698914,849.241699 
	C326.699341,851.569702 326.675812,853.920471 326.970642,856.221313 
	C327.808563,862.760437 330.126495,868.735229 336.298584,871.859558 
	C345.771545,876.654785 355.695404,876.778137 365.087646,871.846558 
	C373.546783,867.404846 374.994110,859.078064 374.995178,850.406128 
	C375.002289,792.437439 374.998871,734.468689 374.998871,675.500000 
M269.080841,677.053955 
	C256.936462,680.206177 251.922501,686.582214 251.900848,699.175598 
	C251.858475,723.820496 251.888336,748.465454 251.888336,773.110413 
	C251.888336,799.587036 251.855057,826.063782 251.908051,852.540283 
	C251.924622,860.817566 254.356781,868.016113 262.138885,872.263794 
	C280.762421,882.429321 300.103699,871.170288 300.108368,850.193420 
	C300.118866,803.068298 300.113525,755.943237 300.108337,708.818115 
	C300.107880,704.822571 300.248840,700.815125 299.998993,696.833618 
	C299.257843,685.022278 292.171997,677.793335 280.435150,676.908447 
	C276.966797,676.646973 273.458405,676.917114 269.080841,677.053955 
M252.251450,630.211426 
	C252.129181,632.363159 251.833267,634.521545 251.914337,636.665588 
	C252.291290,646.635315 257.416107,653.805237 266.247803,657.643860 
	C275.227600,661.546875 284.205048,660.535217 291.840271,653.866760 
	C299.958862,646.776123 302.381622,636.012024 298.433014,626.207214 
	C294.298157,615.939941 285.322113,610.304993 274.077667,610.917542 
	C264.042816,611.464233 255.785233,618.552185 252.251450,630.211426 
z"/>
<path fill="#FDFDFD" opacity="1.000000" stroke="none" 
	d="
M851.254150,380.256714 
	C867.640930,338.175873 898.862671,316.919983 942.777466,312.958740 
	C962.740967,311.157990 982.402466,312.600006 1001.276611,319.582794 
	C1034.770142,331.974243 1053.323975,357.301300 1061.656372,391.044800 
	C1067.183350,413.427338 1066.470825,436.247040 1066.214111,459.616394 
	C1012.656738,459.616394 959.312317,459.616394 905.355652,459.616394 
	C909.439087,472.190613 917.791382,479.798920 928.575134,485.100250 
	C939.452209,490.447449 951.239868,491.425201 963.090759,491.635406 
	C974.913635,491.845123 986.769165,491.219391 998.562561,491.852081 
	C1016.834167,492.832245 1026.626343,504.279572 1025.684570,522.492371 
	C1024.645264,542.591248 1014.782532,552.011841 994.510193,551.855957 
	C977.868713,551.727966 961.117004,552.400269 944.610168,550.753418 
	C889.096191,545.214844 850.451294,508.162354 844.043091,453.020782 
	C841.186096,428.436432 843.158997,404.209259 851.254150,380.256714 
M950.030334,367.326752 
	C944.692261,368.515717 939.178528,369.199249 934.047302,370.983215 
	C914.340820,377.834412 899.968323,396.912750 899.916565,415.661621 
	C936.941711,415.661621 973.965942,415.661621 1011.011902,415.661621 
	C1008.893311,385.882050 982.098816,364.441559 950.030334,367.326752 
z"/>
<path fill="#FEFEFE" opacity="1.000000" stroke="none" 
	d="
M575.125854,491.129822 
	C554.093262,529.008484 521.899963,548.875366 479.311127,551.190186 
	C438.898468,553.386780 404.658173,540.243225 379.943604,506.937073 
	C365.375946,487.305206 358.395416,464.765442 357.125336,440.458893 
	C355.855255,416.152496 359.127655,392.598419 370.205322,370.634613 
	C385.443787,340.421112 409.710144,321.305542 442.693909,313.944214 
	C474.704834,306.800018 505.698395,309.975922 534.236694,326.942444 
	C567.835876,346.917786 585.433960,377.214722 588.980347,415.874359 
	C591.385803,442.096100 587.871582,467.288910 575.125854,491.129822 
M415.330658,426.931793 
	C415.852936,434.380463 415.633575,441.972198 417.037964,449.250671 
	C421.086853,470.233643 431.736877,486.770325 453.237457,492.713135 
	C476.275787,499.080902 498.026276,495.963013 515.124023,477.384735 
	C536.444763,454.217804 536.579224,410.333160 515.837402,386.664368 
	C490.384369,357.619537 443.641541,361.194611 424.486603,393.705475 
	C418.628418,403.648224 416.195374,414.620239 415.330658,426.931793 
z"/>
<path fill="#FEFEFE" opacity="1.000000" stroke="none" 
	d="
M246.843643,315.080383 
	C274.662872,316.926941 298.739838,325.828064 316.320190,347.932373 
	C328.730438,363.536194 333.519897,381.929749 333.625763,401.519501 
	C333.839081,441.015015 333.734802,480.512573 333.647766,520.009094 
	C333.631866,527.232300 332.615143,534.361389 327.963501,540.318604 
	C320.269562,550.172058 309.351685,551.426819 298.143341,550.472656 
	C280.839874,548.999695 272.124847,538.909119 272.114746,521.297791 
	C272.092682,482.801025 272.112854,444.304291 272.097229,405.807526 
	C272.096161,403.144714 272.165863,400.452667 271.821503,397.824097 
	C269.979279,383.761475 261.823792,376.590546 246.047607,376.099731 
	C231.913513,375.660034 217.754913,376.007202 203.001663,376.007202 
	C203.001663,377.940155 203.001663,379.700897 203.001663,381.461639 
	C203.001663,427.624420 202.783936,473.788605 203.090637,519.949341 
	C203.251434,544.149048 188.118057,552.483337 167.961075,550.409546 
	C149.602676,548.520813 141.696396,538.805420 141.687607,519.324280 
	C141.662201,462.995697 141.678619,406.667145 141.678619,350.338562 
	C141.678619,338.709534 141.678619,327.080505 141.678619,315.061554 
	C176.786621,315.061554 211.575150,315.061554 246.843643,315.080383 
z"/>
<path fill="#FEFEFE" opacity="1.000000" stroke="none" 
	d="
M760.251831,357.177185 
	C762.951477,348.901581 765.469421,340.982513 768.134644,333.113342 
	C773.421265,317.504395 786.541565,310.129791 803.162537,313.331268 
	C819.560730,316.489777 829.763672,328.629028 828.765808,344.495056 
	C828.489563,348.886505 827.040955,353.307922 825.536377,357.502594 
	C807.650940,407.368134 789.815247,457.252716 771.600586,506.998322 
	C764.791382,525.594788 753.333313,540.658020 733.201477,545.869080 
	C702.172363,553.900940 675.668030,541.200806 663.140808,508.744873 
	C652.200989,480.401825 642.362427,451.633636 632.043091,423.051178 
	C623.920715,400.554047 615.853271,378.036926 607.670166,355.561890 
	C603.518372,344.158813 603.354797,333.191589 611.982361,323.786591 
	C621.066406,313.884094 632.815674,310.909546 645.696106,313.592590 
	C656.473816,315.837616 662.674133,323.454468 665.985413,333.616150 
	C672.985901,355.099518 679.954895,376.593109 686.946960,398.079254 
	C696.756592,428.223572 706.575378,458.364929 717.524841,488.737640 
	C731.728821,445.010529 745.932800,401.283417 760.251831,357.177185 
z"/>
<path fill="#010101" opacity="1.000000" stroke="none" 
	d="
M609.000305,822.000000 
	C609.000305,798.007141 609.025757,774.514160 608.991943,751.021362 
	C608.966736,733.490234 600.785339,725.331909 583.313599,725.314331 
	C574.023621,725.304993 564.733643,725.312744 554.999695,725.312744 
	C554.999695,727.541504 554.999695,729.329285 554.999695,731.117004 
	C554.999695,770.271790 555.023682,809.426575 554.958374,848.581238 
	C554.952637,852.056580 554.681213,855.595764 553.984985,858.992859 
	C552.374878,866.848938 547.678223,872.286682 539.744690,873.934998 
	C535.088928,874.902161 530.104492,875.322815 525.397766,874.806213 
	C513.508728,873.501221 507.007812,865.596619 506.924530,852.790649 
	C506.792389,832.464355 506.888031,812.136536 506.887604,791.809387 
	C506.887329,777.813660 506.954163,763.817444 506.869476,749.822266 
	C506.777924,734.692139 499.384491,726.377625 484.340240,725.481628 
	C474.071289,724.869995 463.736481,725.364563 452.685913,725.364563 
	C452.685913,727.365540 452.685883,729.112427 452.685883,730.859375 
	C452.685883,769.181091 452.685883,807.502747 452.685883,845.824463 
	C452.685883,846.824158 452.657593,847.824768 452.690033,848.823425 
	C453.530884,874.709656 435.546570,877.494019 419.677155,873.996033 
	C411.255554,872.139832 406.001373,865.564758 404.971771,856.543762 
	C404.764648,854.728760 404.699036,852.888733 404.698608,851.060242 
	C404.685059,794.077515 404.687714,737.094849 404.687866,680.112122 
	C404.687866,679.149048 404.687836,678.185913 404.687836,676.687256 
	C406.817078,676.687256 408.591400,676.687317 410.365723,676.687317 
	C431.359344,676.687317 452.357697,676.955444 473.344879,676.587646 
	C486.151215,676.363220 497.476410,679.010864 506.673553,690.247925 
	C506.673553,685.201416 506.673553,681.200623 506.673553,677.537109 
	C507.484497,677.062439 507.750885,676.769897 508.017212,676.769958 
	C535.172058,676.776123 562.353577,676.049377 589.475342,677.010803 
	C628.607910,678.398010 656.933716,708.114746 657.252319,747.198792 
	C657.537537,782.185852 657.336487,817.177063 657.295593,852.166443 
	C657.285278,861.034912 654.803955,869.094482 645.974060,872.662659 
	C636.013367,876.687805 625.679993,876.971680 616.488586,870.272705 
	C610.455200,865.875427 609.160339,858.980835 609.042297,851.990112 
	C608.876404,842.162659 609.000305,832.330261 609.000305,822.000000 
z"/>
<path fill="#010101" opacity="1.000000" stroke="none" 
	d="
M778.014648,876.114319 
	C745.735413,875.661621 718.456970,865.440308 698.878906,839.186401 
	C688.382324,825.110718 682.823547,808.911804 681.301208,791.558716 
	C679.423767,770.158264 680.597900,748.912476 688.649170,728.652771 
	C701.662842,695.905884 726.505615,678.752991 761.009766,675.003357 
	C778.064636,673.149963 794.991699,674.290405 811.179688,680.396729 
	C836.408569,689.913513 851.468506,708.714233 859.114563,734.079041 
	C865.266846,754.488403 864.888916,775.423157 864.600952,796.828857 
	C819.315918,796.828857 774.257324,796.828857 728.738770,796.828857 
	C731.953857,809.551636 739.802795,817.587463 750.793213,822.847290 
	C761.132996,827.795776 772.321594,828.113708 783.482544,828.290771 
	C790.478699,828.401733 797.485779,828.525024 804.474487,828.272156 
	C827.185547,827.450623 832.394287,841.181885 829.774963,859.121521 
	C828.232971,869.682739 820.521545,875.872986 809.501160,876.067383 
	C799.174316,876.249634 788.841736,876.111450 778.014648,876.114319 
M738.122742,731.617249 
	C729.310547,740.128845 725.624268,750.890320 724.194580,763.035217 
	C756.833923,763.035217 789.214111,763.035217 822.331970,763.035217 
	C821.674072,759.265259 821.345581,755.661072 820.399475,752.227051 
	C810.737183,717.157593 766.296326,705.713440 738.122742,731.617249 
z"/>
<path fill="#010101" opacity="1.000000" stroke="none" 
	d="
M1038.008301,706.767517 
	C1035.179688,722.307068 1024.993408,730.444763 1010.005798,728.316772 
	C995.870422,726.309875 981.960266,722.694763 967.816772,720.776489 
	C960.350281,719.763855 952.524963,720.292236 945.005493,721.252014 
	C941.374268,721.715576 937.470947,724.159546 934.750366,726.798950 
	C928.889954,732.484436 930.249756,740.654297 937.884888,743.338379 
	C947.232056,746.624146 957.073853,748.515991 966.721985,750.929626 
	C981.208130,754.553406 996.058105,757.097290 1010.128052,761.923462 
	C1031.948730,769.408325 1046.281982,784.245117 1047.907959,808.441162 
	C1049.611816,833.795654 1037.947144,852.190063 1016.088989,863.809204 
	C994.264771,875.410339 970.306763,878.001770 946.171875,875.385437 
	C931.926086,873.841125 917.841858,869.884583 903.996460,865.924133 
	C896.116333,863.669922 889.175049,858.666260 886.221436,850.312988 
	C882.906128,840.936829 885.684937,832.309082 891.940308,825.299805 
	C898.893188,817.508911 908.283081,817.012817 917.777954,819.687073 
	C925.911621,821.978088 933.732849,825.616638 941.971863,827.242310 
	C955.868286,829.984375 970.036194,831.330139 984.057678,827.866577 
	C987.821411,826.936829 991.579346,825.037292 994.722778,822.738953 
	C1001.396912,817.858826 1001.070740,809.027588 993.544373,805.783203 
	C984.785583,802.007629 975.391541,799.593994 966.131897,797.117554 
	C951.541138,793.215393 936.715759,790.158447 922.212891,785.970764 
	C911.726074,782.942688 902.348816,777.336182 894.885559,769.185669 
	C873.997986,746.374695 877.699524,711.411072 902.972961,692.208740 
	C915.909973,682.379517 930.957336,677.819153 946.750000,675.483337 
	C967.862976,672.360657 988.999573,672.585266 1009.643860,678.127258 
	C1016.792358,680.046326 1023.601440,684.216919 1029.773193,688.500671 
	C1035.578857,692.530457 1038.319702,698.975647 1038.008301,706.767517 
z"/>
<path fill="#010101" opacity="1.000000" stroke="none" 
	d="
M219.769104,679.904663 
	C232.549011,683.554688 236.736191,690.662720 235.083023,705.240356 
	C233.891739,715.745117 226.575500,722.464417 214.988617,722.953369 
	C205.671600,723.346558 196.326965,723.085876 186.994583,723.113464 
	C185.370209,723.118286 183.745789,723.114075 181.688156,723.114075 
	C181.688156,725.372559 181.688156,727.165344 181.688156,728.958130 
	C181.688156,768.290344 181.702927,807.622559 181.661453,846.954773 
	C181.657944,850.275574 181.416809,853.612793 181.019760,856.910278 
	C180.784576,858.863708 180.196594,860.820740 179.475800,862.661987 
	C175.816147,872.010010 166.812836,876.197632 153.140839,875.019287 
	C142.649612,874.115112 135.705261,868.241821 133.978607,858.512756 
	C133.371155,855.089905 133.045059,851.570557 133.039520,848.094543 
	C132.975952,808.262451 132.999054,768.430176 132.999054,728.597961 
	C132.999054,726.779907 132.999054,724.961914 132.999054,723.230713 
	C115.859085,717.139282 112.309288,712.805786 112.685913,698.641418 
	C112.977890,687.660095 117.852531,683.049500 133.707703,678.510376 
	C136.036392,669.825439 137.964554,661.224915 140.654526,652.869690 
	C148.287872,629.159912 165.889236,617.657593 189.628662,615.160461 
	C199.079941,614.166321 208.985901,614.501282 218.329895,616.192444 
	C231.855087,618.640381 237.613541,628.759155 234.943329,642.225464 
	C233.291779,650.554504 226.755829,656.090393 217.117065,657.008362 
	C213.313431,657.370605 209.461853,657.294434 205.631836,657.303223 
	C190.446045,657.338196 183.574829,663.384766 181.311462,679.856628 
	C194.101105,679.856628 206.726349,679.856628 219.769104,679.904663 
z"/>
<path fill="#000000" opacity="1.000000" stroke="none" 
	d="
M374.998871,676.000000 
	C374.998871,734.468689 375.002289,792.437439 374.995178,850.406128 
	C374.994110,859.078064 373.546783,867.404846 365.087646,871.846558 
	C355.695404,876.778137 345.771545,876.654785 336.298584,871.859558 
	C330.126495,868.735229 327.808563,862.760437 326.970642,856.221313 
	C326.675812,853.920471 326.699341,851.569702 326.698914,849.241699 
	C326.686066,779.446045 326.682434,709.650391 326.709137,639.854736 
	C326.710266,636.867554 326.671661,633.813843 327.237305,630.905090 
	C329.460449,619.472656 338.728821,613.243958 351.845917,614.111877 
	C368.185608,615.193054 374.996552,622.519226 374.998596,639.019653 
	C375.000092,651.179749 374.998871,663.339905 374.998871,676.000000 
z"/>
<path fill="#000000" opacity="1.000000" stroke="none" 
	d="
M269.524597,676.998779 
	C273.458405,676.917114 276.966797,676.646973 280.435150,676.908447 
	C292.171997,677.793335 299.257843,685.022278 299.998993,696.833618 
	C300.248840,700.815125 300.107880,704.822571 300.108337,708.818115 
	C300.113525,755.943237 300.118866,803.068298 300.108368,850.193420 
	C300.103699,871.170288 280.762421,882.429321 262.138885,872.263794 
	C254.356781,868.016113 251.924622,860.817566 251.908051,852.540283 
	C251.855057,826.063782 251.888336,799.587036 251.888336,773.110413 
	C251.888336,748.465454 251.858475,723.820496 251.900848,699.175598 
	C251.922501,686.582214 256.936462,680.206177 269.524597,676.998779 
z"/>
<path fill="#020202" opacity="1.000000" stroke="none" 
	d="
M252.392548,629.810791 
	C255.785233,618.552185 264.042816,611.464233 274.077667,610.917542 
	C285.322113,610.304993 294.298157,615.939941 298.433014,626.207214 
	C302.381622,636.012024 299.958862,646.776123 291.840271,653.866760 
	C284.205048,660.535217 275.227600,661.546875 266.247803,657.643860 
	C257.416107,653.805237 252.291290,646.635315 251.914337,636.665588 
	C251.833267,634.521545 252.129181,632.363159 252.392548,629.810791 
z"/>
<path fill="#010101" opacity="1.000000" stroke="none" 
	d="
M950.484680,367.300537 
	C982.098816,364.441559 1008.893311,385.882050 1011.011902,415.661621 
	C973.965942,415.661621 936.941711,415.661621 899.916565,415.661621 
	C899.968323,396.912750 914.340820,377.834412 934.047302,370.983215 
	C939.178528,369.199249 944.692261,368.515717 950.484680,367.300537 
z"/>
<path fill="#010101" opacity="1.000000" stroke="none" 
	d="
M415.373413,426.477448 
	C416.195374,414.620239 418.628418,403.648224 424.486603,393.705475 
	C443.641541,361.194611 490.384369,357.619537 515.837402,386.664368 
	C536.579224,410.333160 536.444763,454.217804 515.124023,477.384735 
	C498.026276,495.963013 476.275787,499.080902 453.237457,492.713135 
	C431.736877,486.770325 421.086853,470.233643 417.037964,449.250671 
	C415.633575,441.972198 415.852936,434.380463 415.373413,426.477448 
z"/>
<path fill="#FDFDFD" opacity="1.000000" stroke="none" 
	d="
M738.373291,731.367371 
	C766.296326,705.713440 810.737183,717.157593 820.399475,752.227051 
	C821.345581,755.661072 821.674072,759.265259 822.331970,763.035217 
	C789.214111,763.035217 756.833923,763.035217 724.194580,763.035217 
	C725.624268,750.890320 729.310547,740.128845 738.373291,731.367371 
z"/>
</svg>