<svg version="1.1" id="Layer_1" xmlns="http://www.w3.org/2000/svg" xmlns:xlink="http://www.w3.org/1999/xlink" x="0px" y="0px"
	 width="100%" viewBox="0 0 1671 1136" enable-background="new 0 0 1671 1136" xml:space="preserve">
<path fill="#000000" opacity="1.000000" stroke="none" 
	d="
M1.000000,408.000000 
	C1.000000,272.000031 1.000000,136.500046 1.000000,1.000055 
	C557.999878,1.000036 1114.999756,1.000036 1671.999756,1.000018 
	C1671.999756,379.666473 1671.999756,758.332947 1671.999878,1136.999512 
	C1115.000244,1136.999756 558.000610,1136.999756 1.000437,1136.999878 
	C1.000000,894.166687 1.000000,651.333313 1.000000,408.000000 
M527.500183,33.680740 
	C361.781006,33.680740 196.061829,33.680740 30.372519,33.680740 
	C30.372519,206.859100 30.372519,379.264557 30.372519,551.744385 
	C566.996399,551.744385 1103.357300,551.744385 1639.700439,551.744385 
	C1639.700439,378.925354 1639.700439,206.362320 1639.700439,33.680737 
	C1269.100464,33.680737 898.800354,33.680737 527.500183,33.680740 
M862.599304,796.724182 
	C870.098145,800.165955 875.682251,805.681152 877.876343,813.577698 
	C879.635620,819.909729 880.831177,826.622131 880.866699,833.173401 
	C881.115723,879.163147 880.996582,925.154846 881.000977,971.145935 
	C881.001709,978.810730 880.822266,986.482788 881.089661,994.138794 
	C881.715576,1012.061584 891.594910,1023.541931 909.285828,1026.058472 
	C915.770630,1026.980957 922.601929,1026.746460 929.121826,1025.882202 
	C943.609009,1023.961548 952.608948,1015.349670 955.595947,1001.197388 
	C956.481689,997.000488 956.831848,992.617798 956.838684,988.319336 
	C956.920654,936.829407 956.919495,885.339294 956.853088,833.849365 
	C956.845581,828.035767 956.522949,822.202454 955.980225,816.412659 
	C950.576965,758.768433 903.968933,716.258667 845.965698,716.125977 
	C805.807068,716.034058 765.647949,716.105774 725.489075,716.118164 
	C724.055969,716.118591 722.622864,716.265747 720.711731,716.370728 
	C720.711731,723.249756 720.711731,729.764832 720.711731,736.977783 
	C707.972900,721.681091 692.115051,715.895325 673.370483,716.032959 
	C637.879272,716.293518 602.384766,716.108337 566.891663,716.108337 
	C565.108337,716.108337 563.325012,716.108276 561.108276,716.108276 
	C561.108276,718.062744 561.108337,719.520142 561.108337,720.977539 
	C561.108337,810.293579 561.106995,899.609619 561.117432,988.925659 
	C561.117676,990.755737 561.154663,992.596130 561.343079,994.414307 
	C563.161987,1011.963928 570.797363,1022.035339 586.085205,1025.341919 
	C592.644409,1026.760742 599.723022,1027.171509 606.388062,1026.434448 
	C623.328796,1024.560791 631.980591,1016.669617 635.427795,1000.957031 
	C636.346130,996.771362 636.632996,992.373413 636.638062,988.072266 
	C636.711853,924.917847 636.688843,861.763428 636.688843,798.608948 
	C636.688843,796.692200 636.688843,794.775391 636.688843,792.927429 
	C654.056519,792.927429 670.718933,792.473083 687.345825,793.047180 
	C706.386536,793.704529 717.654602,804.402466 720.473511,823.290161 
	C720.864685,825.910950 720.974854,828.594543 720.977966,831.249329 
	C721.041870,885.071106 720.921875,938.893616 721.192078,992.714233 
	C721.280884,1010.401550 730.203003,1022.450317 745.502747,1025.425293 
	C752.708130,1026.826416 760.463562,1026.890991 767.770264,1025.973022 
	C783.764282,1023.963684 792.576477,1015.196167 795.539795,999.668884 
	C796.189514,996.263855 796.287842,992.714050 796.290161,989.230774 
	C796.332275,925.743042 796.320862,862.255371 796.320862,798.767639 
	C796.320862,796.841003 796.320862,794.914368 796.320862,792.859314 
	C812.975586,792.859314 828.962952,792.558655 844.928345,793.020142 
	C850.620972,793.184692 856.260254,795.196228 862.599304,796.724182 
M1276.961548,825.526001 
	C1275.291870,818.585449 1273.996216,811.529175 1271.891724,804.723083 
	C1258.397827,761.082153 1230.917236,731.039673 1186.228027,718.568542 
	C1158.511841,710.834045 1130.254150,710.416992 1102.162231,716.188904 
	C1058.077881,725.246704 1025.887939,750.128845 1008.049744,791.655884 
	C990.909729,831.557495 988.330505,873.477539 997.349365,915.539062 
	C1011.775879,982.820190 1061.621826,1019.955811 1121.363403,1026.636230 
	C1145.089111,1029.289307 1169.248535,1028.710449 1193.200317,1028.488647 
	C1212.311401,1028.311890 1223.442017,1018.884644 1226.453003,1001.738831 
	C1227.555542,995.459778 1227.380859,988.824463 1226.881226,982.422485 
	C1225.710449,967.421814 1216.777954,957.418335 1202.164917,954.397217 
	C1197.798706,953.494568 1193.248169,953.254272 1188.772095,953.152588 
	C1169.296509,952.709900 1149.789307,952.955688 1130.348389,951.922058 
	C1115.316772,951.122864 1101.422607,945.984375 1089.379883,936.583679 
	C1078.970337,928.457886 1071.868408,918.175293 1068.578247,904.582703 
	C1139.656860,904.582703 1210.228394,904.582703 1281.001465,904.582703 
	C1281.001465,891.054871 1281.513062,878.035339 1280.857422,865.074829 
	C1280.203369,852.145020 1278.379639,839.274353 1276.961548,825.526001 
M1461.426636,789.000488 
	C1463.695312,789.525085 1465.956665,790.084839 1468.234009,790.568604 
	C1483.830322,793.881409 1499.270996,798.442017 1515.428223,797.835876 
	C1530.795410,797.259460 1541.367310,788.998047 1547.641724,775.473511 
	C1553.770386,762.263245 1551.366577,749.849426 1542.157349,738.707581 
	C1536.173340,731.467896 1528.248657,726.949768 1519.898071,723.059509 
	C1504.846069,716.047302 1488.702393,714.195190 1472.415405,712.706970 
	C1444.196167,710.128418 1416.238281,711.183350 1388.689209,718.161499 
	C1365.284668,724.089783 1343.934448,733.748108 1327.055420,751.876526 
	C1298.123901,782.949524 1300.168579,831.355408 1324.095215,858.351807 
	C1336.706543,872.581238 1352.604004,881.524170 1370.196411,887.945801 
	C1394.202881,896.708801 1419.404175,900.495056 1444.176514,906.124573 
	C1456.083252,908.830444 1468.010376,912.343140 1479.167236,917.228455 
	C1493.418945,923.468994 1493.932495,937.780701 1480.738281,946.274170 
	C1476.085327,949.269409 1470.719482,952.024109 1465.353760,952.902832 
	C1433.888550,958.055481 1403.007568,955.626587 1373.266235,943.559387 
	C1364.503784,940.003967 1355.745483,937.604614 1346.188965,937.937439 
	C1331.188477,938.459778 1319.677368,946.809692 1314.311401,961.614075 
	C1308.216553,978.428772 1310.645752,992.172913 1323.267090,1001.724060 
	C1330.948608,1007.536987 1339.780273,1012.624268 1348.890625,1015.615601 
	C1386.068115,1027.823120 1424.146362,1032.041992 1463.088623,1025.783203 
	C1485.616821,1022.162476 1507.280640,1016.258362 1526.481689,1003.304382 
	C1559.977295,980.706543 1574.419312,941.824158 1562.827393,903.218628 
	C1554.728516,876.246094 1534.831787,860.376709 1509.718140,850.111511 
	C1486.475342,840.611084 1461.926270,836.412109 1437.386841,831.900879 
	C1422.912476,829.239929 1408.428833,825.693420 1394.599731,820.732605 
	C1381.833008,816.152893 1380.358521,802.949890 1390.319580,793.472778 
	C1395.859741,788.201782 1402.754150,785.988037 1410.126831,784.913086 
	C1427.250732,782.416260 1443.955322,785.215698 1461.426636,789.000488 
M155.182846,1022.427917 
	C165.615997,1027.142456 176.496613,1027.236084 187.463257,1025.205566 
	C201.698120,1022.569885 209.932831,1013.646912 212.706207,999.685181 
	C213.574982,995.311707 213.838882,990.755493 213.843765,986.282288 
	C213.913528,922.293457 213.891418,858.304565 213.891418,794.315674 
	C213.891418,792.534302 213.891403,790.752930 213.891403,788.688477 
	C230.384567,788.688477 246.352203,788.747986 262.319214,788.673523 
	C282.626160,788.578796 294.748810,779.244690 297.433472,760.561707 
	C300.388397,739.997925 294.491638,721.529724 266.510040,720.077332 
	C251.392059,719.292664 236.208542,719.769104 221.054550,719.681519 
	C218.630356,719.667480 216.205978,719.679504 213.758560,719.679504 
	C214.790970,700.919678 224.927826,688.669312 241.371689,686.362488 
	C246.606171,685.628296 252.024994,686.322388 257.329102,685.940979 
	C263.775696,685.477356 270.360962,685.251587 276.580780,683.699219 
	C287.412811,680.995605 294.499115,674.026794 297.001617,662.781433 
	C301.883270,640.845154 291.437714,624.697388 269.146698,620.179382 
	C252.955444,616.897644 236.679520,617.355530 220.496078,620.116821 
	C186.184937,625.971191 161.119324,643.581482 149.892975,677.621338 
	C145.483841,690.990417 142.345139,704.778503 138.501099,718.839478 
	C113.321716,726.120850 105.756836,733.428894 105.388870,752.189575 
	C105.237457,759.909485 106.657806,767.441345 111.218872,774.016418 
	C117.672264,783.319580 127.616165,786.293823 137.998856,788.325439 
	C137.998856,838.032654 137.998825,887.349915 137.998886,936.667114 
	C137.998901,954.997253 137.775208,973.331055 138.075851,991.656250 
	C138.285950,1004.462891 142.356918,1015.550293 155.182846,1022.427917 
M516.000732,781.500000 
	C516.000732,760.508362 516.000916,739.516663 516.000732,718.525024 
	C516.000549,696.367249 516.102844,674.208923 515.967224,652.051941 
	C515.859924,634.523010 506.313995,621.855469 490.438995,619.366089 
	C482.844482,618.175110 474.819946,618.228821 467.174194,619.187012 
	C453.048553,620.957397 444.322418,629.518982 441.413666,643.277283 
	C440.525757,647.476990 440.163513,651.862793 440.160950,656.163757 
	C440.095184,766.785889 440.108093,877.408081 440.116882,988.030273 
	C440.117035,989.860352 440.140625,991.699341 440.312622,993.519104 
	C442.090240,1012.324402 450.499756,1022.662781 467.502014,1025.466431 
	C474.132019,1026.559570 481.182983,1026.484741 487.864716,1025.600586 
	C503.298828,1023.558167 512.272522,1014.587280 515.144165,999.331665 
	C515.785095,995.927002 515.964355,992.392151 515.966675,988.916992 
	C516.012451,920.111328 516.000732,851.305664 516.000732,781.500000 
M398.606079,998.805603 
	C398.844727,994.821960 399.289398,990.838379 399.291534,986.854614 
	C399.332672,909.878479 399.327179,832.902405 399.304413,755.926270 
	C399.303436,752.605530 399.169952,749.274109 398.885559,745.966003 
	C397.606750,731.089783 388.367981,719.853577 373.949158,717.470825 
	C366.208130,716.191589 357.990234,716.196472 350.192993,717.207153 
	C335.857361,719.065308 327.224609,727.805420 324.392853,741.880981 
	C323.610565,745.769531 323.296844,749.811951 323.283295,753.785583 
	C323.205994,776.443909 323.302307,799.102844 323.306580,821.761536 
	C323.317261,878.077393 323.285675,934.393250 323.323608,990.709106 
	C323.336578,1009.973816 332.726685,1023.008179 349.333710,1025.693970 
	C356.290527,1026.818970 363.651062,1026.894653 370.649780,1026.020386 
	C386.536194,1024.036133 395.248779,1015.287415 398.606079,998.805603 
M390.919800,627.626770 
	C378.706787,612.879517 357.891174,608.846680 342.504303,618.246643 
	C325.676025,628.527161 318.553345,649.703552 326.165436,666.823669 
	C334.206421,684.908386 353.478088,693.945740 372.400146,688.505249 
	C397.885437,681.177673 407.371246,651.006348 390.919800,627.626770 
z"/>
<path fill="#FEFEFE" opacity="1.000000" stroke="none" 
	d="
M528.000244,33.680740 
	C898.800354,33.680737 1269.100464,33.680737 1639.700439,33.680737 
	C1639.700439,206.362320 1639.700439,378.925354 1639.700439,551.744385 
	C1103.357300,551.744385 566.996399,551.744385 30.372519,551.744385 
	C30.372519,379.264557 30.372519,206.859100 30.372519,33.680740 
	C196.061829,33.680740 361.781006,33.680740 528.000244,33.680740 
M1515.364502,142.134796 
	C1500.720825,128.178894 1483.952515,117.630447 1464.877808,110.845039 
	C1428.840942,98.025681 1391.812012,96.478951 1354.591187,103.141487 
	C1300.700684,112.787903 1260.445679,141.872086 1237.824829,192.178101 
	C1215.325928,242.212585 1212.064453,294.881012 1223.977905,347.999237 
	C1240.634766,422.266510 1295.100830,467.368195 1364.869263,479.146088 
	C1398.298462,484.789398 1432.016602,482.280243 1465.599731,481.808441 
	C1483.374756,481.558746 1496.320312,470.559937 1499.777466,454.190063 
	C1501.668213,445.237457 1502.276245,435.599640 1501.235596,426.526215 
	C1498.881104,405.996735 1488.390747,395.774139 1468.229126,392.298157 
	C1464.972168,391.736633 1461.597168,391.781677 1458.273071,391.700867 
	C1433.151245,391.090302 1407.976562,391.319244 1382.922119,389.690216 
	C1361.451538,388.294189 1342.319580,379.964600 1326.870728,364.360596 
	C1317.939209,355.339447 1312.224609,344.599823 1309.073242,331.812439 
	C1395.391846,331.812439 1481.138916,331.812439 1567.112915,331.812439 
	C1567.112915,320.637695 1566.999512,309.828156 1567.136353,299.021820 
	C1567.426025,276.144379 1565.735962,253.452759 1561.064941,231.028015 
	C1554.068848,197.441544 1540.635742,167.133438 1515.364502,142.134796 
M745.712158,142.778900 
	C738.452271,137.214615 731.542419,131.105698 723.873901,126.177216 
	C683.607788,100.298592 639.340820,92.170479 592.439880,98.860970 
	C530.790039,107.655411 485.869476,140.183609 459.908630,197.042480 
	C438.642059,243.620163 435.834076,292.459198 446.691071,342.063049 
	C454.663544,378.487946 471.371094,410.644135 499.099304,436.000061 
	C544.372803,477.400208 598.515808,489.013306 657.406494,478.318115 
	C719.907837,466.967224 763.016052,429.888031 788.589539,372.159668 
	C803.506348,338.487244 806.952148,302.997437 804.212769,266.652618 
	C800.557800,218.160095 781.966248,176.680344 745.712158,142.778900 
M98.686943,227.499847 
	C98.686943,296.323395 98.683853,365.146973 98.697975,433.970520 
	C98.698555,436.800354 98.767975,439.636566 98.962692,442.458923 
	C100.271652,461.431763 110.818054,474.566772 128.464294,478.683258 
	C138.964233,481.132660 149.659286,481.240997 160.166473,478.787323 
	C174.316437,475.483063 183.827469,466.819458 187.257004,452.533691 
	C188.756378,446.287964 189.573349,439.722290 189.586258,433.299652 
	C189.740921,356.310730 189.686188,279.321320 189.686188,202.332062 
	C189.686188,200.389023 189.686188,198.445984 189.686188,196.112671 
	C208.351028,196.112671 226.480591,196.015381 244.608276,196.156189 
	C252.922836,196.220749 261.286163,196.271591 269.535889,197.169312 
	C289.237854,199.313263 301.443542,210.545441 305.151642,229.924637 
	C306.329987,236.082687 306.614441,242.488144 306.624695,248.781509 
	C306.727295,311.605927 306.656189,374.430573 306.701080,437.255127 
	C306.720856,464.945618 322.064972,480.381683 349.762238,480.196106 
	C356.847382,480.148651 364.175476,479.559601 370.952942,477.656128 
	C387.777405,472.931030 397.207916,458.583557 397.257050,437.976166 
	C397.409546,373.990387 397.358948,310.003937 397.258667,246.017944 
	C397.245117,237.376007 397.078705,228.660690 395.984375,220.107117 
	C391.799652,187.398438 378.681213,159.047546 353.078766,137.536575 
	C325.560730,114.416084 293.025330,104.366188 257.598938,104.016922 
	C206.277756,103.510941 154.947876,103.887329 103.621696,103.887329 
	C102.021309,103.887329 100.420921,103.887321 98.686935,103.887321 
	C98.686935,145.189804 98.686935,185.844818 98.686943,227.499847 
M838.293396,155.927246 
	C839.241211,158.936935 840.099792,161.978134 841.149902,164.951706 
	C867.802795,240.423904 894.435486,315.903320 921.179260,391.343323 
	C926.555969,406.510132 931.344727,421.886230 939.976562,435.768921 
	C968.905579,482.295532 1020.314026,483.433899 1051.701538,466.978546 
	C1073.890991,455.345428 1087.382812,435.770294 1095.596313,412.744476 
	C1124.831421,330.785095 1153.693481,248.692551 1182.651245,166.634323 
	C1186.630615,155.358109 1189.097412,143.907089 1185.470581,131.960266 
	C1179.987793,113.899910 1160.766724,100.554131 1139.776489,100.313492 
	C1117.930420,100.063042 1103.860718,110.055428 1097.028076,131.392273 
	C1074.286987,202.408340 1051.711182,273.477295 1029.076294,344.527313 
	C1023.582214,361.773254 1018.104614,379.024536 1012.366577,397.068298 
	C1011.694641,395.486145 1011.319702,394.769348 1011.078003,394.010132 
	C1001.051392,362.520447 991.056274,331.020752 981.016357,299.535339 
	C963.104675,243.364090 945.204102,187.189178 927.207947,131.044952 
	C923.650513,119.946335 917.803589,110.185936 906.873657,105.047249 
	C888.883118,96.589020 871.494141,99.018692 855.343140,110.002617 
	C839.281067,120.926109 834.992920,136.683441 838.293396,155.927246 
z"/>
<path fill="#FEFEFE" opacity="1.000000" stroke="none" 
	d="
M862.261597,796.544434 
	C856.260254,795.196228 850.620972,793.184692 844.928345,793.020142 
	C828.962952,792.558655 812.975586,792.859314 796.320862,792.859314 
	C796.320862,794.914368 796.320862,796.841003 796.320862,798.767639 
	C796.320862,862.255371 796.332275,925.743042 796.290161,989.230774 
	C796.287842,992.714050 796.189514,996.263855 795.539795,999.668884 
	C792.576477,1015.196167 783.764282,1023.963684 767.770264,1025.973022 
	C760.463562,1026.890991 752.708130,1026.826416 745.502747,1025.425293 
	C730.203003,1022.450317 721.280884,1010.401550 721.192078,992.714233 
	C720.921875,938.893616 721.041870,885.071106 720.977966,831.249329 
	C720.974854,828.594543 720.864685,825.910950 720.473511,823.290161 
	C717.654602,804.402466 706.386536,793.704529 687.345825,793.047180 
	C670.718933,792.473083 654.056519,792.927429 636.688843,792.927429 
	C636.688843,794.775391 636.688843,796.692200 636.688843,798.608948 
	C636.688843,861.763428 636.711853,924.917847 636.638062,988.072266 
	C636.632996,992.373413 636.346130,996.771362 635.427795,1000.957031 
	C631.980591,1016.669617 623.328796,1024.560791 606.388062,1026.434448 
	C599.723022,1027.171509 592.644409,1026.760742 586.085205,1025.341919 
	C570.797363,1022.035339 563.161987,1011.963928 561.343079,994.414307 
	C561.154663,992.596130 561.117676,990.755737 561.117432,988.925659 
	C561.106995,899.609619 561.108337,810.293579 561.108337,720.977539 
	C561.108337,719.520142 561.108276,718.062744 561.108276,716.108276 
	C563.325012,716.108276 565.108337,716.108337 566.891663,716.108337 
	C602.384766,716.108337 637.879272,716.293518 673.370483,716.032959 
	C692.115051,715.895325 707.972900,721.681091 720.711731,736.977783 
	C720.711731,729.764832 720.711731,723.249756 720.711731,716.370728 
	C722.622864,716.265747 724.055969,716.118591 725.489075,716.118164 
	C765.647949,716.105774 805.807068,716.034058 845.965698,716.125977 
	C903.968933,716.258667 950.576965,758.768433 955.980225,816.412659 
	C956.522949,822.202454 956.845581,828.035767 956.853088,833.849365 
	C956.919495,885.339294 956.920654,936.829407 956.838684,988.319336 
	C956.831848,992.617798 956.481689,997.000488 955.595947,1001.197388 
	C952.608948,1015.349670 943.609009,1023.961548 929.121826,1025.882202 
	C922.601929,1026.746460 915.770630,1026.980957 909.285828,1026.058472 
	C891.594910,1023.541931 881.715576,1012.061584 881.089661,994.138794 
	C880.822266,986.482788 881.001709,978.810730 881.000977,971.145935 
	C880.996582,925.154846 881.115723,879.163147 880.866699,833.173401 
	C880.831177,826.622131 879.635620,819.909729 877.876343,813.577698 
	C875.682251,805.681152 870.098145,800.165955 862.261597,796.544434 
z"/>
<path fill="#FEFEFE" opacity="1.000000" stroke="none" 
	d="
M1277.015137,825.951904 
	C1278.379639,839.274353 1280.203369,852.145020 1280.857422,865.074829 
	C1281.513062,878.035339 1281.001465,891.054871 1281.001465,904.582703 
	C1210.228394,904.582703 1139.656860,904.582703 1068.578247,904.582703 
	C1071.868408,918.175293 1078.970337,928.457886 1089.379883,936.583679 
	C1101.422607,945.984375 1115.316772,951.122864 1130.348389,951.922058 
	C1149.789307,952.955688 1169.296509,952.709900 1188.772095,953.152588 
	C1193.248169,953.254272 1197.798706,953.494568 1202.164917,954.397217 
	C1216.777954,957.418335 1225.710449,967.421814 1226.881226,982.422485 
	C1227.380859,988.824463 1227.555542,995.459778 1226.453003,1001.738831 
	C1223.442017,1018.884644 1212.311401,1028.311890 1193.200317,1028.488647 
	C1169.248535,1028.710449 1145.089111,1029.289307 1121.363403,1026.636230 
	C1061.621826,1019.955811 1011.775879,982.820190 997.349365,915.539062 
	C988.330505,873.477539 990.909729,831.557495 1008.049744,791.655884 
	C1025.887939,750.128845 1058.077881,725.246704 1102.162231,716.188904 
	C1130.254150,710.416992 1158.511841,710.834045 1186.228027,718.568542 
	C1230.917236,731.039673 1258.397827,761.082153 1271.891724,804.723083 
	C1273.996216,811.529175 1275.291870,818.585449 1277.015137,825.951904 
M1100.499878,851.684814 
	C1138.272583,851.684814 1176.045410,851.684814 1213.812134,851.684814 
	C1214.112305,820.012939 1187.578125,780.186157 1138.286987,780.562622 
	C1097.812744,780.871765 1063.311646,808.830505 1062.079590,851.684814 
	C1074.557739,851.684814 1087.028687,851.684814 1100.499878,851.684814 
z"/>
<path fill="#FEFEFE" opacity="1.000000" stroke="none" 
	d="
M1461.008667,788.949524 
	C1443.955322,785.215698 1427.250732,782.416260 1410.126831,784.913086 
	C1402.754150,785.988037 1395.859741,788.201782 1390.319580,793.472778 
	C1380.358521,802.949890 1381.833008,816.152893 1394.599731,820.732605 
	C1408.428833,825.693420 1422.912476,829.239929 1437.386841,831.900879 
	C1461.926270,836.412109 1486.475342,840.611084 1509.718140,850.111511 
	C1534.831787,860.376709 1554.728516,876.246094 1562.827393,903.218628 
	C1574.419312,941.824158 1559.977295,980.706543 1526.481689,1003.304382 
	C1507.280640,1016.258362 1485.616821,1022.162476 1463.088623,1025.783203 
	C1424.146362,1032.041992 1386.068115,1027.823120 1348.890625,1015.615601 
	C1339.780273,1012.624268 1330.948608,1007.536987 1323.267090,1001.724060 
	C1310.645752,992.172913 1308.216553,978.428772 1314.311401,961.614075 
	C1319.677368,946.809692 1331.188477,938.459778 1346.188965,937.937439 
	C1355.745483,937.604614 1364.503784,940.003967 1373.266235,943.559387 
	C1403.007568,955.626587 1433.888550,958.055481 1465.353760,952.902832 
	C1470.719482,952.024109 1476.085327,949.269409 1480.738281,946.274170 
	C1493.932495,937.780701 1493.418945,923.468994 1479.167236,917.228455 
	C1468.010376,912.343140 1456.083252,908.830444 1444.176514,906.124573 
	C1419.404175,900.495056 1394.202881,896.708801 1370.196411,887.945801 
	C1352.604004,881.524170 1336.706543,872.581238 1324.095215,858.351807 
	C1300.168579,831.355408 1298.123901,782.949524 1327.055420,751.876526 
	C1343.934448,733.748108 1365.284668,724.089783 1388.689209,718.161499 
	C1416.238281,711.183350 1444.196167,710.128418 1472.415405,712.706970 
	C1488.702393,714.195190 1504.846069,716.047302 1519.898071,723.059509 
	C1528.248657,726.949768 1536.173340,731.467896 1542.157349,738.707581 
	C1551.366577,749.849426 1553.770386,762.263245 1547.641724,775.473511 
	C1541.367310,788.998047 1530.795410,797.259460 1515.428223,797.835876 
	C1499.270996,798.442017 1483.830322,793.881409 1468.234009,790.568604 
	C1465.956665,790.084839 1463.695312,789.525085 1461.008667,788.949524 
z"/>
<path fill="#FEFEFE" opacity="1.000000" stroke="none" 
	d="
M154.851593,1022.250610 
	C142.356918,1015.550293 138.285950,1004.462891 138.075851,991.656250 
	C137.775208,973.331055 137.998901,954.997253 137.998886,936.667114 
	C137.998825,887.349915 137.998856,838.032654 137.998856,788.325439 
	C127.616165,786.293823 117.672264,783.319580 111.218872,774.016418 
	C106.657806,767.441345 105.237457,759.909485 105.388870,752.189575 
	C105.756836,733.428894 113.321716,726.120850 138.501099,718.839478 
	C142.345139,704.778503 145.483841,690.990417 149.892975,677.621338 
	C161.119324,643.581482 186.184937,625.971191 220.496078,620.116821 
	C236.679520,617.355530 252.955444,616.897644 269.146698,620.179382 
	C291.437714,624.697388 301.883270,640.845154 297.001617,662.781433 
	C294.499115,674.026794 287.412811,680.995605 276.580780,683.699219 
	C270.360962,685.251587 263.775696,685.477356 257.329102,685.940979 
	C252.024994,686.322388 246.606171,685.628296 241.371689,686.362488 
	C224.927826,688.669312 214.790970,700.919678 213.758560,719.679504 
	C216.205978,719.679504 218.630356,719.667480 221.054550,719.681519 
	C236.208542,719.769104 251.392059,719.292664 266.510040,720.077332 
	C294.491638,721.529724 300.388397,739.997925 297.433472,760.561707 
	C294.748810,779.244690 282.626160,788.578796 262.319214,788.673523 
	C246.352203,788.747986 230.384567,788.688477 213.891403,788.688477 
	C213.891403,790.752930 213.891418,792.534302 213.891418,794.315674 
	C213.891418,858.304565 213.913528,922.293457 213.843765,986.282288 
	C213.838882,990.755493 213.574982,995.311707 212.706207,999.685181 
	C209.932831,1013.646912 201.698120,1022.569885 187.463257,1025.205566 
	C176.496613,1027.236084 165.615997,1027.142456 154.851593,1022.250610 
z"/>
<path fill="#FEFEFE" opacity="1.000000" stroke="none" 
	d="
M516.000732,782.000000 
	C516.000732,851.305664 516.012451,920.111328 515.966675,988.916992 
	C515.964355,992.392151 515.785095,995.927002 515.144165,999.331665 
	C512.272522,1014.587280 503.298828,1023.558167 487.864716,1025.600586 
	C481.182983,1026.484741 474.132019,1026.559570 467.502014,1025.466431 
	C450.499756,1022.662781 442.090240,1012.324402 440.312622,993.519104 
	C440.140625,991.699341 440.117035,989.860352 440.116882,988.030273 
	C440.108093,877.408081 440.095184,766.785889 440.160950,656.163757 
	C440.163513,651.862793 440.525757,647.476990 441.413666,643.277283 
	C444.322418,629.518982 453.048553,620.957397 467.174194,619.187012 
	C474.819946,618.228821 482.844482,618.175110 490.438995,619.366089 
	C506.313995,621.855469 515.859924,634.523010 515.967224,652.051941 
	C516.102844,674.208923 516.000549,696.367249 516.000732,718.525024 
	C516.000916,739.516663 516.000732,760.508362 516.000732,782.000000 
z"/>
<path fill="#FEFEFE" opacity="1.000000" stroke="none" 
	d="
M398.488708,999.228027 
	C395.248779,1015.287415 386.536194,1024.036133 370.649780,1026.020386 
	C363.651062,1026.894653 356.290527,1026.818970 349.333710,1025.693970 
	C332.726685,1023.008179 323.336578,1009.973816 323.323608,990.709106 
	C323.285675,934.393250 323.317261,878.077393 323.306580,821.761536 
	C323.302307,799.102844 323.205994,776.443909 323.283295,753.785583 
	C323.296844,749.811951 323.610565,745.769531 324.392853,741.880981 
	C327.224609,727.805420 335.857361,719.065308 350.192993,717.207153 
	C357.990234,716.196472 366.208130,716.191589 373.949158,717.470825 
	C388.367981,719.853577 397.606750,731.089783 398.885559,745.966003 
	C399.169952,749.274109 399.303436,752.605530 399.304413,755.926270 
	C399.327179,832.902405 399.332672,909.878479 399.291534,986.854614 
	C399.289398,990.838379 398.844727,994.821960 398.488708,999.228027 
z"/>
<path fill="#FDFDFD" opacity="1.000000" stroke="none" 
	d="
M391.141022,627.909851 
	C407.371246,651.006348 397.885437,681.177673 372.400146,688.505249 
	C353.478088,693.945740 334.206421,684.908386 326.165436,666.823669 
	C318.553345,649.703552 325.676025,628.527161 342.504303,618.246643 
	C357.891174,608.846680 378.706787,612.879517 391.141022,627.909851 
z"/>
<path fill="#010101" opacity="1.000000" stroke="none" 
	d="
M1515.616211,142.380920 
	C1540.635742,167.133438 1554.068848,197.441544 1561.064941,231.028015 
	C1565.735962,253.452759 1567.426025,276.144379 1567.136353,299.021820 
	C1566.999512,309.828156 1567.112915,320.637695 1567.112915,331.812439 
	C1481.138916,331.812439 1395.391846,331.812439 1309.073242,331.812439 
	C1312.224609,344.599823 1317.939209,355.339447 1326.870728,364.360596 
	C1342.319580,379.964600 1361.451538,388.294189 1382.922119,389.690216 
	C1407.976562,391.319244 1433.151245,391.090302 1458.273071,391.700867 
	C1461.597168,391.781677 1464.972168,391.736633 1468.229126,392.298157 
	C1488.390747,395.774139 1498.881104,405.996735 1501.235596,426.526215 
	C1502.276245,435.599640 1501.668213,445.237457 1499.777466,454.190063 
	C1496.320312,470.559937 1483.374756,481.558746 1465.599731,481.808441 
	C1432.016602,482.280243 1398.298462,484.789398 1364.869263,479.146088 
	C1295.100830,467.368195 1240.634766,422.266510 1223.977905,347.999237 
	C1212.064453,294.881012 1215.325928,242.212585 1237.824829,192.178101 
	C1260.445679,141.872086 1300.700684,112.787903 1354.591187,103.141487 
	C1391.812012,96.478951 1428.840942,98.025681 1464.877808,110.845039 
	C1483.952515,117.630447 1500.720825,128.178894 1515.616211,142.380920 
M1381.499878,268.313934 
	C1416.444214,268.313934 1451.388550,268.313934 1486.345215,268.313934 
	C1485.149658,224.645157 1450.434570,179.449966 1390.800537,181.639755 
	C1343.662354,183.370712 1303.584839,215.679733 1301.134521,268.313965 
	C1327.601685,268.313965 1354.050659,268.313965 1381.499878,268.313934 
z"/>
<path fill="#010101" opacity="1.000000" stroke="none" 
	d="
M745.974976,143.016541 
	C781.966248,176.680344 800.557800,218.160095 804.212769,266.652618 
	C806.952148,302.997437 803.506348,338.487244 788.589539,372.159668 
	C763.016052,429.888031 719.907837,466.967224 657.406494,478.318115 
	C598.515808,489.013306 544.372803,477.400208 499.099304,436.000061 
	C471.371094,410.644135 454.663544,378.487946 446.691071,342.063049 
	C435.834076,292.459198 438.642059,243.620163 459.908630,197.042480 
	C485.869476,140.183609 530.790039,107.655411 592.439880,98.860970 
	C639.340820,92.170479 683.607788,100.298592 723.873901,126.177216 
	C731.542419,131.105698 738.452271,137.214615 745.974976,143.016541 
M701.257141,225.263977 
	C683.961121,199.295624 660.062439,184.361801 628.726318,181.831253 
	C586.030029,178.383347 549.156311,202.323318 534.838013,242.661957 
	C526.810791,265.276825 525.452576,288.507416 528.429932,312.067108 
	C530.797852,330.804504 536.802063,348.288971 548.186279,363.637024 
	C564.115601,385.112762 585.905151,395.467010 612.166565,397.396027 
	C645.716248,399.860504 674.188232,389.771637 695.800720,363.233063 
	C710.392822,345.315002 716.689209,324.248291 718.338257,301.503601 
	C720.288025,274.612061 715.744995,249.194794 701.257141,225.263977 
z"/>
<path fill="#000000" opacity="1.000000" stroke="none" 
	d="
M98.686935,226.999847 
	C98.686935,185.844818 98.686935,145.189804 98.686935,103.887321 
	C100.420921,103.887321 102.021309,103.887329 103.621696,103.887329 
	C154.947876,103.887329 206.277756,103.510941 257.598938,104.016922 
	C293.025330,104.366188 325.560730,114.416084 353.078766,137.536575 
	C378.681213,159.047546 391.799652,187.398438 395.984375,220.107117 
	C397.078705,228.660690 397.245117,237.376007 397.258667,246.017944 
	C397.358948,310.003937 397.409546,373.990387 397.257050,437.976166 
	C397.207916,458.583557 387.777405,472.931030 370.952942,477.656128 
	C364.175476,479.559601 356.847382,480.148651 349.762238,480.196106 
	C322.064972,480.381683 306.720856,464.945618 306.701080,437.255127 
	C306.656189,374.430573 306.727295,311.605927 306.624695,248.781509 
	C306.614441,242.488144 306.329987,236.082687 305.151642,229.924637 
	C301.443542,210.545441 289.237854,199.313263 269.535889,197.169312 
	C261.286163,196.271591 252.922836,196.220749 244.608276,196.156189 
	C226.480591,196.015381 208.351028,196.112671 189.686188,196.112671 
	C189.686188,198.445984 189.686188,200.389023 189.686188,202.332062 
	C189.686188,279.321320 189.740921,356.310730 189.586258,433.299652 
	C189.573349,439.722290 188.756378,446.287964 187.257004,452.533691 
	C183.827469,466.819458 174.316437,475.483063 160.166473,478.787323 
	C149.659286,481.240997 138.964233,481.132660 128.464294,478.683258 
	C110.818054,474.566772 100.271652,461.431763 98.962692,442.458923 
	C98.767975,439.636566 98.698555,436.800354 98.697975,433.970520 
	C98.683853,365.146973 98.686943,296.323395 98.686935,226.999847 
z"/>
<path fill="#010101" opacity="1.000000" stroke="none" 
	d="
M838.191284,155.515732 
	C834.992920,136.683441 839.281067,120.926109 855.343140,110.002617 
	C871.494141,99.018692 888.883118,96.589020 906.873657,105.047249 
	C917.803589,110.185936 923.650513,119.946335 927.207947,131.044952 
	C945.204102,187.189178 963.104675,243.364090 981.016357,299.535339 
	C991.056274,331.020752 1001.051392,362.520447 1011.078003,394.010132 
	C1011.319702,394.769348 1011.694641,395.486145 1012.366577,397.068298 
	C1018.104614,379.024536 1023.582214,361.773254 1029.076294,344.527313 
	C1051.711182,273.477295 1074.286987,202.408340 1097.028076,131.392273 
	C1103.860718,110.055428 1117.930420,100.063042 1139.776489,100.313492 
	C1160.766724,100.554131 1179.987793,113.899910 1185.470581,131.960266 
	C1189.097412,143.907089 1186.630615,155.358109 1182.651245,166.634323 
	C1153.693481,248.692551 1124.831421,330.785095 1095.596313,412.744476 
	C1087.382812,435.770294 1073.890991,455.345428 1051.701538,466.978546 
	C1020.314026,483.433899 968.905579,482.295532 939.976562,435.768921 
	C931.344727,421.886230 926.555969,406.510132 921.179260,391.343323 
	C894.435486,315.903320 867.802795,240.423904 841.149902,164.951706 
	C840.099792,161.978134 839.241211,158.936935 838.191284,155.515732 
z"/>
<path fill="#020202" opacity="1.000000" stroke="none" 
	d="
M1099.999756,851.684814 
	C1087.028687,851.684814 1074.557739,851.684814 1062.079590,851.684814 
	C1063.311646,808.830505 1097.812744,780.871765 1138.286987,780.562622 
	C1187.578125,780.186157 1214.112305,820.012939 1213.812134,851.684814 
	C1176.045410,851.684814 1138.272583,851.684814 1099.999756,851.684814 
z"/>
<path fill="#FEFEFE" opacity="1.000000" stroke="none" 
	d="
M1380.999756,268.313965 
	C1354.050659,268.313965 1327.601685,268.313965 1301.134521,268.313965 
	C1303.584839,215.679733 1343.662354,183.370712 1390.800537,181.639755 
	C1450.434570,179.449966 1485.149658,224.645157 1486.345215,268.313934 
	C1451.388550,268.313934 1416.444214,268.313934 1380.999756,268.313965 
z"/>
<path fill="#FEFEFE" opacity="1.000000" stroke="none" 
	d="
M701.475464,225.554962 
	C715.744995,249.194794 720.288025,274.612061 718.338257,301.503601 
	C716.689209,324.248291 710.392822,345.315002 695.800720,363.233063 
	C674.188232,389.771637 645.716248,399.860504 612.166565,397.396027 
	C585.905151,395.467010 564.115601,385.112762 548.186279,363.637024 
	C536.802063,348.288971 530.797852,330.804504 528.429932,312.067108 
	C525.452576,288.507416 526.810791,265.276825 534.838013,242.661957 
	C549.156311,202.323318 586.030029,178.383347 628.726318,181.831253 
	C660.062439,184.361801 683.961121,199.295624 701.475464,225.554962 
z"/>
</svg>